<?xml version="1.0" encoding="utf-8"?>
<!-- Generator: Adobe Illustrator 27.5.0, SVG Export Plug-In . SVG Version: 6.00 Build 0)  -->
<svg version="1.1" id="Layer_1" xmlns="http://www.w3.org/2000/svg" xmlns:xlink="http://www.w3.org/1999/xlink" x="0px" y="0px"
	 viewBox="0 0 512 512" style="enable-background:new 0 0 512 512;" xml:space="preserve">
<style type="text/css">
	.st0{display:none;fill:#3FBFC1;stroke:#3FBFC1;stroke-width:0.25;}
	.st1{fill:#FCE9BE;stroke:#FEF8E3;stroke-width:0.25;}
	.st2{fill:#FEF8E3;stroke:#FEF8E3;stroke-width:0.25;}
	.st3{fill:#65CFCC;stroke:#65CFCC;stroke-width:0.25;}
	.st4{fill:#012139;stroke:#012139;stroke-width:0.25;}
	.st5{fill:#00364B;stroke:#00364B;stroke-width:0.25;}
	.st6{fill:#F56B48;stroke:#F56B48;stroke-width:0.25;}
	.st7{fill:#D6543B;stroke:#D6543B;stroke-width:0.25;}
	.st8{fill:#27A4AD;stroke:#27A4AD;stroke-width:0.25;}
	.st9{fill:#35B4B9;stroke:#35B4B9;stroke-width:0.25;}
	.st10{fill:#09727D;stroke:#09727D;stroke-width:0.25;}
	.st11{fill:#1D9AA1;stroke:#1D9AA1;stroke-width:0.25;}
	.st12{fill:#FDF5D8;stroke:#FDF5D8;stroke-width:0.25;}
	.st13{display:none;fill:#FAE4B5;stroke:#FAE4B5;stroke-width:0.25;}
	.st14{fill:#002F47;stroke:#002F47;stroke-width:0.25;}
	.st15{display:none;fill:#34B9BA;stroke:#34B9BA;stroke-width:0.25;}
	.st16{display:none;fill:#FCE9BE;stroke:#FCE9BE;stroke-width:0.25;}
	.st17{fill:#FDF4D1;stroke:#FDF4D1;stroke-width:0.25;}
	.st18{display:none;fill:#2FACB1;stroke:#2FACB1;stroke-width:0.25;}
	.st19{display:none;fill:#35B6B9;stroke:#35B6B9;stroke-width:0.25;}
	.st20{display:none;fill:#FBE3B3;stroke:#FBE3B3;stroke-width:0.25;}
	.st21{display:none;fill:#C2AA7A;stroke:#C2AA7A;stroke-width:0.25;}
	.st22{display:none;fill:#F4D59F;stroke:#F4D59F;stroke-width:0.25;}
	.st23{display:none;fill:#F7E6C1;stroke:#F7E6C1;stroke-width:0.25;}
	.st24{display:none;fill:#F3E2B4;stroke:#F3E2B4;stroke-width:0.25;}
	.st25{fill:#32B8BA;stroke:#32B8BA;stroke-width:0.25;}
	.st26{fill:#F76C49;stroke:#F76C49;stroke-width:0.25;}
	.st27{fill:#E35838;stroke:#E35838;stroke-width:0.25;}
	.st28{display:none;fill:#2FB1B5;stroke:#2FB1B5;stroke-width:0.25;}
	.st29{fill:#FEF8E0;stroke:#FEF8E0;stroke-width:0.25;}
	.st30{fill:#007983;stroke:#007983;stroke-width:0.25;}
	.st31{fill:#139299;stroke:#139299;stroke-width:0.25;}
	.st32{fill:#00546E;stroke:#00546E;stroke-width:0.25;}
	.st33{fill:#032036;stroke:#032036;stroke-width:0.25;}
	.st34{fill:#00B191;stroke:#00B191;stroke-width:0.25;}
	.st35{fill:#0F302E;stroke:#0F302E;stroke-width:0.25;}
	.st36{fill:#00AF95;stroke:#00AF95;stroke-width:0.25;}
	.st37{display:none;fill:#FBEFD3;stroke:#FBEFD3;stroke-width:0.25;}
	.st38{display:none;fill:#33B4B7;stroke:#33B4B7;stroke-width:0.25;}
	.st39{fill:#E3B400;stroke:#E3B400;stroke-width:0.25;}
	.st40{fill:#1AA1A5;stroke:#1AA1A5;stroke-width:0.25;}
	.st41{fill:#004863;stroke:#004863;stroke-width:0.25;}
	.st42{fill:#001325;stroke:#001325;stroke-width:0.25;}
	.st43{fill:#0E8996;stroke:#0E8996;stroke-width:0.25;}
	.st44{fill:#004158;stroke:#004158;stroke-width:0.25;}
	.st45{fill:#C63434;stroke:#C63434;stroke-width:0.25;}
	.st46{fill:#27B6B9;stroke:#27B6B9;stroke-width:0.25;}
	.st47{fill:#E5593A;stroke:#E5593A;stroke-width:0.25;}
	.st48{fill:#00868A;stroke:#00868A;stroke-width:0.25;}
	.st49{fill:#18B6B2;stroke:#18B6B2;stroke-width:0.25;}
	.st50{fill:#007662;stroke:#007662;stroke-width:0.25;}
	.st51{fill:#29AEB6;stroke:#29AEB6;stroke-width:0.25;}
	.st52{fill:#03A791;stroke:#03A791;stroke-width:0.25;}
	.st53{fill:#025F5E;stroke:#025F5E;stroke-width:0.25;}
	.st54{fill:#004D66;stroke:#004D66;stroke-width:0.25;}
	.st55{fill:#022229;stroke:#022229;stroke-width:0.25;}
	.st56{fill:#052033;stroke:#052033;stroke-width:0.25;}
	.st57{fill:#028B93;stroke:#028B93;stroke-width:0.25;}
	.st58{fill:#028D94;stroke:#028D94;stroke-width:0.25;}
	.st59{fill:#00A794;stroke:#00A794;stroke-width:0.25;}
	.st60{fill:#21A4AC;stroke:#21A4AC;stroke-width:0.25;}
	.st61{fill:#040C19;stroke:#040C19;stroke-width:0.25;}
	.st62{fill:#022739;stroke:#022739;stroke-width:0.25;}
	.st63{fill:#019089;stroke:#019089;stroke-width:0.25;}
	.st64{fill:#038090;stroke:#038090;stroke-width:0.25;}
	.st65{fill:#00627A;stroke:#00627A;stroke-width:0.25;}
	.st66{fill:#01A89F;stroke:#01A89F;stroke-width:0.25;}
	.st67{display:none;fill:#BC5842;stroke:#BC5842;stroke-width:0.25;}
	.st68{display:none;fill:#FEDA6B;stroke:#FEDA6B;stroke-width:0.25;}
	.st69{fill:#007387;stroke:#007387;stroke-width:0.25;}
	.st70{fill:#00657B;stroke:#00657B;stroke-width:0.25;}
	.st71{fill:#2AB7B6;stroke:#2AB7B6;stroke-width:0.25;}
	.st72{fill:#B68F47;stroke:#B68F47;stroke-width:0.25;}
	.st73{fill:#2B140F;stroke:#2B140F;stroke-width:0.25;}
	.st74{fill:#593222;stroke:#593222;stroke-width:0.25;}
	.st75{fill:#003A51;stroke:#003A51;stroke-width:0.25;}
	.st76{fill:#11090E;stroke:#11090E;stroke-width:0.25;}
	.st77{fill:#352B28;stroke:#352B28;stroke-width:0.25;}
	.st78{fill:#EBB54B;stroke:#EBB54B;stroke-width:0.25;}
	.st79{display:none;fill:#2AADB2;stroke:#2AADB2;stroke-width:0.25;}
	.st80{fill:#04929A;stroke:#04929A;stroke-width:0.25;}
	.st81{display:none;fill:#C26E52;stroke:#C26E52;stroke-width:0.25;}
	.st82{display:none;fill:#2ABBBC;stroke:#2ABBBC;stroke-width:0.25;}
</style>
<path class="st0" d="M0,0h512v182.7c-4.7,0.2-9.2-1.2-13.3-3.5c-2-1.3-3.4,0.6-4.5,2c-1.6,0.4-3.2,0.7-4.8,1.1
	c0-0.9-0.1-1.7-0.1-2.6c-0.9,0.4-1.7,0.9-2.6,1.3c1,1.5,2.4,2.7,3.9,3.6c-0.2,0.1-0.6,0.4-0.8,0.5c-1.6-0.3-3.3-0.5-4.9-0.6
	c-9.1-14.9-30.5-19.4-45.3-10.9c-2.6-3.2-5-6.6-8-9.5c-4.6-4.4-10.3-7.6-15.1-11.9c-2.7-2.4-5.5-4.9-8.2-7.2
	c3.1-1.1,6.5-1.2,9.6-2.3c4.4-2.1,9.5-4.8,10.2-10.2c2.1-4.8,2-11.7-2.7-15c-1.9-2.1-3.6-4.5-6.2-5.8c-2.5-1.4-5.4-1.4-8.2-1.4
	c-6.7,0-13.4,0.1-20.1,0.2c-0.3-2.3,0.1-5-1.7-6.8c-3.9-4.8-10.5-5.7-16.3-5.6c-4.7-5.5-11.4-9.7-18.8-9.6c-3.3-0.2-6,1.6-8.7,3.3
	c0.8-2.7,1.9-5.8,0.1-8.4c-2.8-5.1-8.7-6.5-13.7-8.5c-5.4-2.3-12.2-2.9-17.3,0.4c-1.9,1-2.4,3.2-3.3,4.9c-7.1-1.1-13.9-3.3-21-4.6
	c-20.5-4.3-41.6-5.2-62.4-2.6c-30.1,4.3-59.4,15-84.7,32c-15.1,10.6-29.5,22.5-41.2,36.8c-11.8,13.9-21.4,29.6-28.4,46.4
	c-12.1,30.6-14,64.4-9.1,96.7c1.5,8.7,2.7,17.7,6.3,25.8c-3.4-3.4-5.5-8.9-10.7-9.9c-5.8-0.9-11.9,2-15,6.9c-2.3,3.5-2.1,8-1.3,12
	c2,6.2,7.4,11,13.7,12.7c7.3,2.3,15,0.6,22.4,1.6c3.5,5.5,6.2,11.6,10,17c5.2,8.4,12,15.7,18.6,22.9c-0.4,2.4-1,4.9-1.8,7.2
	c-1.5-1.8-3.2-3.4-5-4.9c-0.8-0.1-1.6-0.1-2.4-0.1c-3.7,1.2-4.9,5.2-5.6,8.6c-1.3,7.1-2.6,14.2-4.7,21.2c-1.1,2.6,0.1,5.1,2,7
	c-0.4,0.3-1.1,0.8-1.4,1.1c0.4,0.9,0.8,1.7,1.1,2.6c-0.6,1.8-1,3.6-1.2,5.5c-2.4,0.4-3.1,3-5,4.3c-1.6,1-2.3,2.7-2.7,4.5
	c-19.2,10.5-37.9,21.8-55,35.5c-5.5,0.1-9.1,5.3-14.2,6.9c-0.7-0.5-1.3-1-2-1.5c-0.4,2-1,4-1.9,5.9c-0.7-1-1.4-1.9-2.1-2.9
	c-0.3,1-0.6,2-0.9,2.9c-0.9-0.5-1.8-1-2.7-1.5c-1.1,0.5-2.2,0.9-3.2,1.4V0z"/>
<polygon class="st1" points="256.6,153.5 255.3,292.7 300.7,291.5 273.8,154.7 "/>
<path class="st2" d="M444.9,221.3c6.2,0.8,12.1,4.2,15.5,9.6c1.2,1.8,1.1,4.1,1.2,6.2c1.6,20.2,0.8,40.6-3.8,60.4
	c-1.9,8.4-4.2,16.6-7.7,24.5c9.8-3.4,22.1-0.9,28.3,7.8c1.3,1.8,2.9,3.3,5.1,3.8c-0.6,0.4-1.1,0.8-1.7,1.2
	c-19.7-0.7-39.5,0.6-59.2,0.6l-0.1-1c6-11.7,10.1-24.4,12.9-37.2c2-7.6,2.8-15.5,3.3-23.4c1.9-20.5-0.8-41.1-5.6-61
	c-7.5-29-22.3-56.2-43.7-77.3c-30.3-32.3-72.9-51.6-116.5-57c-13-1.8-26.1-1.2-39.1-0.8c9.9,7.9,22.5,15.6,25.1,29.1
	c-4.2,0.3-8.3,0.5-12.5,1c-2.4,3-2.3,7-3.2,10.5c-2.9,15.7-7.8,30.8-11.4,46.3c-6.9,33.7-14.9,67.2-21.6,101
	c-2.2,11.2-4.8,22.4-6.9,33.6c-5.1-0.7-10.1,0.3-15.1,0.2c-1.9-10.3-15.1-14.8-23.8-9.9c-6.4,2.6-9.5,9.5-9.8,16.1
	c15.8-0.2,31.5-0.7,47.3,0.3c-5.3,27.5-10.3,55.1-16.1,82.5c-9.2-5-18.9-9.3-27.3-15.8c-2.9-1.9-3.4-5.5-4.5-8.5
	c-0.2-0.5-0.6-1.6-0.8-2.1c-1.4-0.5-2.8-0.9-4.1-1.4c-1.6,0.8-3.4,1.7-4.1,3.5c-1.9,4.5-1.9,9.6-2.9,14.4c-0.9-0.7-2.3-1.1-2.4-2.5
	c-3-10.8-4.7-21.9-6.2-32.9c-0.7-5.5-1.9-12.7-8.2-14.2c-0.5-0.1-1.4-0.3-1.8-0.4c-4.2,0.1-7.9,3.2-8.9,7.2
	c-1.8,6.7-1.8,13.7-3.2,20.4c-1.4,6-1.8,12.1-2.8,18.1c-6.7-7.2-13.4-14.6-18.6-22.9c-3.9-5.4-6.5-11.5-10-17
	c-7.4-1.1-15.2,0.7-22.4-1.6c-6.2-1.7-11.7-6.4-13.7-12.7c-0.8-3.9-1-8.5,1.3-12c3.1-4.9,9.2-7.8,15-6.9c5.2,1,7.3,6.5,10.7,9.9
	c-3.7-8.2-4.8-17.1-6.3-25.8c-4.9-32.3-2.9-66.1,9.1-96.7c7-16.8,16.6-32.5,28.4-46.4c11.7-14.3,26.2-26.2,41.2-36.8
	c25.3-17,54.6-27.7,84.7-32c20.8-2.6,41.9-1.7,62.4,2.6c7,1.3,13.9,3.5,21,4.6c0.9-1.8,1.4-3.9,3.3-4.9c5.1-3.3,11.9-2.7,17.3-0.4
	c5,2,10.9,3.4,13.7,8.5c1.8,2.6,0.7,5.7-0.1,8.4c2.6-1.7,5.4-3.5,8.7-3.3c7.5-0.1,14.1,4.1,18.8,9.6c5.8-0.1,12.4,0.8,16.3,5.6
	c1.8,1.8,1.4,4.5,1.7,6.8c6.7-0.1,13.4-0.2,20.1-0.2c2.8,0.1,5.7,0,8.2,1.4c2.6,1.3,4.3,3.7,6.2,5.8c2.4,6.8-0.1,15.8-7.2,18.5
	c-7.4,0.5-14.7-0.5-22.1-0.4c4.2,3,8.3,6.1,12.2,9.5c2.8,2.4,5.5,4.8,8.2,7.2c4.8,4.3,10.5,7.4,15.1,11.9c3,2.8,5.5,6.2,8,9.5
	c14.9-8.5,36.3-4,45.3,10.9c4.2,6.3,4.8,14,4.1,21.3C485.4,216.3,473.4,230,444.9,221.3z"/>
<path class="st3" d="M233.8,77.6c13-0.4,26.2-1,39.1,0.8c43.7,5.4,86.2,24.8,116.5,57c21.4,21.1,36.2,48.3,43.7,77.3
	c4.8,19.9,7.5,40.5,5.6,61c-0.4,7.9-1.3,15.7-3.3,23.4c-0.1-0.8-0.2-2.3-0.2-3.1c-8.8-7.6-17-16-25.8-23.7
	c-9.2-8.8-19.3-16.6-28.5-25.4c-17.2-16.5-35.6-31.7-52.7-48.3c-6.7-6.3-13.7-12.3-20.5-18.6c-7.4-6.9-15.7-12.8-22.3-20.6
	c-2.8-3.4-5.1-7.3-7.6-10.9c-1.5-2.3-2.9-4.6-4.1-7c-1.9-7.5-3.8-15-5.2-22.6c-0.7-3-1-6.2-2.9-8.7c-1.6-2.1-4.5-1.6-6.8-1.6
	C256.3,93.2,243.8,85.6,233.8,77.6z"/>
<path class="st4" d="M269.4,271.8c-3.9,0.4-8.2,0.4-12.1,0.2c0,2.4,0,4.8,0,7.1c3.7,0,7.4,0.3,11-0.6c0.3,1.2,0.6,2.4,0.9,3.6
	l-0.4,0.4c-3.6,1.8-7.8,0.4-11.6,0.8c0,2.6,0.1,5.3,0.3,7.9c0.1,13.9,0.2,27.9,0,41.9c5.9,2.6,11.1,8.5,10,15.3
	c-1.4,2.2-3,4.2-4.9,6c-2.1,2-4.9,3.1-7.8,3.2c-7-0.7-12.9-7.7-11.4-14.8c0.8-5,5.5-7.9,10-9.3c0.3-14.1,0-28.1,0.3-42.2
	c0.4-2.7,0.4-5.4,0-8c-4.8,0.1-9.6,0.1-14.4,0c0.1-1.4,0.1-2.7,0.2-4.1c4.7,0,9.4,0,14,0c0-2.4,0.1-4.7,0.1-7.1
	c-4.3-0.1-8.6,0.3-12.8-0.4c-2.2-0.3-1-2.9-1.4-4.4c4.9,0.2,9.9,0.3,14.8,0.1c0-2.6-0.1-5.2-0.1-7.8c-4.2,0-8.4,0.1-12.6,0.1
	c0-1.5-0.1-2.9-0.1-4.4c4.2,0,8.5,0,12.8,0c0-2.4,0.1-4.8-0.4-7.2c-5.2-1-10.6-0.3-15.8,0c0.1-1.5,0.3-3,0.5-4.5
	c5.1-0.2,10.2-0.2,15.3-0.2c0.3-2.6,0.4-5.2,0.3-7.8c-4.2,0-8.3,0-12.5-0.2c0.1-1.3,0.1-2.6,0.1-3.9c4.2-0.3,8.3-0.2,12.5-0.1
	c0-2.5-0.1-4.9-0.1-7.4c-4.8-0.1-9.6,0.2-14.4-0.1c-2.2-0.5-1.1-2.8-1.2-4.4c5.2,0.1,10.3,0.1,15.5,0c0.1-20.6,0-41.3,0.7-61.9
	c2.2-1.1,3.1-3.3,3.7-5.5c-1.5-0.2-2.9-0.4-4.4-0.6c0.6-0.5,1.3-0.9,1.9-1.4c4.1-0.1,8.2-0.1,12.4-0.3c-0.9-10.4-3.4-20.6-5.6-30.8
	c-0.3-1.5-0.5-3-0.7-4.6c-4.1-0.6-8.3-1.1-12.4-1.2c0.4-1.3,0.8-2.5,1.3-3.8c-1.5-0.7-3-1.4-4.5-2c4.1-0.4,8.3-0.6,12.5-1
	c2.3,0,5.2-0.5,6.8,1.6c1.9,2.5,2.2,5.7,2.9,8.7c1.3,7.6,3.2,15.1,5.2,22.6c0.5,3.8,0.5,7.8,1.8,11.4c2.9,7.9,3.9,16.4,6.2,24.5
	c3.8,14.5,5.6,29.4,9,44.1c2.6,11.1,4.5,22.4,6.9,33.5c5.2,22.6,9.2,45.5,14,68.1c0.9,4.2,1.7,8.4,2.4,12.6c0.3,1.3,0.7,2.7,1.1,4
	c3.1,21.6,7.5,43,12,64.4c1.9,8.5,3.9,16.9,6.1,25.3c0.5,3,1.3,7-1.5,9.1c-4.3,1-8.8,0.5-13.2,0.5c-1.8-0.7-3.7-1.2-5.6-1
	c-5.9,0.3-11.9-0.3-17.8,0.5c-26.8-0.1-53.6,0.1-80.5-0.2c-1,3-0.9,7.1-3.6,9.1c-4.7,0.5-9.4,0.3-14.1,0.3c-0.3-3.1-0.8-6.2-1.5-9.2
	c17.8-1.6,35.7-0.6,53.5-1c2.6-0.1,5.2-0.5,7.8-0.9c0-2.1,0.1-4.2,0.1-6.3c23-0.1,46-0.2,69,0.1c-0.2-3.8-1.3-7.3-2.4-10.9
	c-1.3-5.9-2.7-11.9-3.9-17.8c-3.9-18.2-7.2-36.6-11.2-54.9c-3.1-17.8-6.5-35.6-9.8-53.4c-1.3-6.6-2.5-13.1-4-19.6
	c-0.4-1.7-0.8-3.4-1.1-5.1c-4.5-25-10.1-49.7-14.7-74.6c-1.5-9.5-4.1-18.8-5.8-28.2c-0.4-2.2-1-4.3-1.6-6.4c-4.6,0.1-9.1,0-13.7,0.1
	c0.1,12.5-0.2,25-0.3,37.5c3.7-0.1,7.3-0.2,11,0.2c0,1.3,0,2.7,0.1,4c-3.8,0-7.5,0-11.2,0c0,2.6,0,5.3,0,7.9
	c3.9,0.1,7.7-0.1,11.6-0.2c0.2,1.5,0.4,3,0.6,4.5c-4.1-0.1-8.1-0.1-12.2-0.2c-0.4,2.7-0.5,5.4-0.4,8.2c4.7,0,9.5-0.4,14.1,0.3
	c1.5,0.7,2.4,3.9,0.1,4.2c-4.8,0.5-9.5,0-14.3,0.1c0,2.4,0,4.9-0.1,7.3c4,0.1,8,0,11.9-0.3c0,1.5,0.1,3,0.1,4.6
	c-4.1-0.1-8.1-0.1-12.2-0.1c0,2.6,0,5.1,0.1,7.7c4.7,0.3,9.4,0,14.2,0.2c-0.1,1.4-0.2,2.8-0.2,4.2c-4.3,0-8.5-0.3-12.8,0
	c-2.1,1.8-0.6,5-0.8,7.4c4.8-0.1,9.6-0.1,14.4,0.2c0.4,1.4,0.9,2.8,1.3,4.2c-5.1-0.1-10.2,0-15.3-0.1c-0.6,2.6-0.7,5.2-0.6,7.8
	c4.2,0,8.4,0.3,12.7,0.1L269.4,271.8z"/>
<path class="st5" d="M243.2,118.2c0.9-3.5,0.8-7.6,3.2-10.5c1.5,0.7,3,1.4,4.5,2c-0.4,1.3-0.8,2.5-1.3,3.8c-0.7,2.1-1.3,4.2-1.8,6.3
	c-1.9,10.1-4.4,20.1-5.8,30.3c4.6,0.3,9.3,0.5,13.9,0.2c-0.6,0.5-1.3,0.9-1.9,1.4c1.5,0.2,2.9,0.4,4.4,0.6c-0.6,2.2-1.5,4.4-3.7,5.5
	c-5-0.3-10-0.2-15.1-0.2c-0.2,1.5-0.6,2.9-0.9,4.4c-0.5-0.6-1.1-1.3-1.6-1.9c-0.9,4.5-1.2,9.8-4.9,13c0.1-2.9,1.5-6.2-0.6-8.7
	C235.4,149,240.3,133.9,243.2,118.2z"/>
<path class="st6" d="M247.9,119.8c0.4-2.1,1.1-4.2,1.8-6.3c4.2,0.1,8.3,0.6,12.4,1.2c0.2,1.5,0.4,3.1,0.7,4.6
	c-0.4-1.3-0.9-2.7-1.3-4c-1.7-0.1-3.5-0.1-5.2-0.2c0.1,11.8-0.6,23.5-0.3,35.3c-4.6,0.2-9.3,0-13.9-0.2
	C243.5,139.9,246,129.9,247.9,119.8z"/>
<path class="st7" d="M256.3,115.1c1.7,0,3.5,0.1,5.2,0.2c0.4,1.3,0.9,2.7,1.3,4c2.2,10.2,4.8,20.4,5.6,30.8
	c-4.1,0.1-8.2,0.2-12.4,0.3C255.7,138.6,256.4,126.9,256.3,115.1z"/>
<path class="st8" d="M425.5,117.7c4.6,3.3,4.8,10.2,2.7,15c-1.8,2-3.4,4.2-5.5,5.9c-3.1,1.3-6.4-0.4-9.4-1.1c1.7-0.4,3.4-0.8,5-1.3
	C425.4,133.4,427.9,124.5,425.5,117.7z"/>
<path class="st9" d="M422.6,138.6c2.1-1.7,3.7-3.9,5.5-5.9c-0.7,5.4-5.8,8.1-10.2,10.2c-3.1,1.1-6.5,1.3-9.6,2.3
	c-3.9-3.4-8-6.5-12.2-9.5c7.4,0,14.7,0.9,22.1,0.4c-1.7,0.5-3.4,0.9-5,1.3C416.2,138.2,419.5,139.9,422.6,138.6z"/>
<path class="st10" d="M273.8,139.6c1.2,2.4,2.7,4.7,4.1,7c-0.8,1.5-1.6,3-2.4,4.4C274.3,147.4,274.3,143.4,273.8,139.6z"/>
<path class="st11" d="M277.9,146.6c2.5,3.7,4.8,7.5,7.6,10.9c6.6,7.7,14.9,13.7,22.3,20.6c6.8,6.3,13.7,12.3,20.5,18.6
	c17.1,16.6,35.5,31.8,52.7,48.3c9.2,8.9,19.2,16.7,28.5,25.4c8.7,7.7,16.9,16.1,25.8,23.7c0.1,0.8,0.2,2.3,0.2,3.1
	c-2.9,12.8-6.9,25.5-12.9,37.2c-1.2,2.3-1.4,4.9-0.8,7.4c-1.5,2-3.2,3.9-4.9,5.8c-0.5-1-1-2-1.5-2.9c-1.2-1.9-3.2-3.1-5.5-3.4
	c-2.4,0.5-4.6,1.6-6,3.6c-5.1,7.4-7.5,16.4-7.7,25.3c-2.2-5.2-2.7-10.8-4-16.2c-2-9.1-2.5-18.5-4.5-27.7c-0.6-3.1-2.1-6.1-4.6-8.1
	c-2.4-0.9-5.3-1.4-7.5,0.4c-4.2,3-3.7,8.8-4.9,13.4c-0.5-0.6-1-1.2-1.5-1.8c1.5,5.6,0.1,11.4-1,17c0.4-5.9,1.6-12.2-0.4-17.9
	c-5.1-8.9-15.8-14.3-25.9-12.6c-5.6,0.7-10.4,4.1-14.1,8.3c-0.4-0.1-1.3-0.2-1.7-0.3c-0.6,0.6-1.1,1.3-1.6,2c-0.3-1-0.5-2-0.8-3
	c-2.9,0-5.6-0.9-8.3-2c0-0.8,0-1.6,0-2.4c-0.7-0.2-1.3-0.5-1.9-0.7c-0.6,1-1.2,1.9-1.8,2.9c-4.9-22.7-8.9-45.5-14-68.1
	c-2.4-11.2-4.3-22.4-6.9-33.5c-3.4-14.6-5.2-29.5-9-44.1c-2.2-8.1-3.2-16.6-6.2-24.5C276.4,149.6,277.1,148.1,277.9,146.6z"/>
<path class="st12" d="M238.9,162.1c0.2-1.5,0.6-3,0.9-4.4c5,0,10-0.1,15.1,0.2c-0.7,20.6-0.5,41.3-0.7,61.9
	c-0.9-2.4-1.4-5.1-2.6-7.4c-3.1-0.2-6.3,0.8-9.3-0.6c-1.4-0.9-2.5,0.2-3.5,1.1c1.7,0.4,3.5,0.8,5.2,1.1c-0.7,1-1.4,1.9-2.2,2.9
	c-2.2-1.5-4-3.5-5.4-5.8c-0.4,1.8-1.2,3.5-2.1,5.2c-0.6-3.2,0.7-7.6-3-9.1c-0.6,4.6-1.6,9.2-2.7,13.7c-0.4-0.3-1.2-1-1.6-1.3
	c1.3-6.2,2.6-12.4,3.8-18.7C233.3,187.8,236.6,175.1,238.9,162.1z"/>
<path class="st13" d="M257.7,157.7c4.6-0.1,9.1,0,13.7-0.1c0.6,2.1,1.2,4.2,1.6,6.4c1.7,9.4,4.3,18.7,5.8,28.2
	c-1.2,3.1-0.9,6.3-0.2,9.5c-0.8,0.4-1.5,0.7-2.2,1.1c0.1-1.4,0-2.9,0.1-4.3c-1.9,0.9-3.8,0.4-5.6-0.3c-0.4-0.9-0.8-1.7-1.3-2.5
	c-0.3-0.1-0.9-0.2-1.2-0.2c-3.7-0.4-7.3-0.3-11-0.2C257.5,182.8,257.8,170.2,257.7,157.7z"/>
<path class="st14" d="M237.3,160.2c0.5,0.6,1.1,1.3,1.6,1.9c-2.3,13-5.6,25.8-8.1,38.7c-1.2,6.2-2.5,12.5-3.8,18.7
	c-5.4,23.9-10.7,47.8-15.2,71.9c-2.5,12.5-5.4,24.9-7.6,37.5c-6.2,33.1-12.8,66.2-18.8,99.4c-1.9-1.6-3-3.8-4-6
	c-1.3,4.8-2.5,9.7-2.3,14.7c-2.8-2.5-1.3-6.3-0.7-9.4c2-8,3.2-16.1,4.6-24.1c1-5.1,1.9-10.1,2.8-15.2c5.8-27.4,10.8-55,16.1-82.5
	c0.5-2.2,1-4.4,1.4-6.6c2.1-11.2,4.7-22.4,6.9-33.6c6.7-33.8,14.7-67.2,21.6-101c2.1,2.5,0.8,5.8,0.6,8.7
	C236.1,170,236.4,164.7,237.3,160.2z"/>
<path class="st15" d="M494.2,181.3c1-1.5,2.5-3.4,4.5-2c4.1,2.3,8.6,3.7,13.3,3.5v18.4c-7.3,3.5-15.9,0.8-22.9,4.9
	c0.7-7.3,0.1-15.1-4.1-21.3c1.6,0.1,3.3,0.3,4.9,0.6c0.2-0.1,0.6-0.4,0.8-0.5c-1.5-1-2.9-2.2-3.9-3.6c0.9-0.4,1.7-0.9,2.6-1.3
	c0,0.8,0,1.7,0.1,2.6C491,182,492.6,181.7,494.2,181.3z"/>
<path class="st16" d="M278.9,192.2c4.6,24.9,10.2,49.6,14.7,74.6c0,0.6-0.1,1.8-0.1,2.4c-4.7-2.8-10-4.2-15.1-6
	c-0.8-2.5-3.4-3-5.7-3.6c-0.5-1.4-0.9-2.8-1.3-4.2c-4.8-0.3-9.6-0.3-14.4-0.2c0.2-2.4-1.2-5.6,0.8-7.4c4.2-0.3,8.5,0,12.8,0
	c0.1-1.4,0.2-2.8,0.2-4.2c-4.7-0.2-9.4,0.1-14.2-0.2c0-2.6-0.1-5.1-0.1-7.7c4.1,0,8.1,0,12.2,0.1c0-1.5-0.1-3.1-0.1-4.6
	c-4,0.3-8,0.3-11.9,0.3c0-2.4,0-4.9,0.1-7.3c4.8-0.1,9.5,0.3,14.3-0.1c2.3-0.2,1.4-3.4-0.1-4.2c-4.7-0.7-9.4-0.3-14.1-0.3
	c-0.1-2.7-0.1-5.5,0.4-8.2c4.1,0.1,8.1,0.1,12.2,0.2c-0.2-1.5-0.4-3-0.6-4.5c-3.9,0.2-7.7,0.3-11.6,0.2c0-2.6,0-5.3,0-7.9
	c3.8,0,7.5,0,11.2,0c0-1.3,0-2.7-0.1-4c0.3,0.1,0.9,0.2,1.2,0.2c0.4,0.8,0.9,1.7,1.3,2.5c1.8,0.7,3.8,1.2,5.6,0.3
	c-0.1,1.4,0,2.9-0.1,4.3c0.7-0.4,1.5-0.8,2.2-1.1C277.9,198.6,277.6,195.3,278.9,192.2z"/>
<path class="st17" d="M231.4,207.1c3.7,1.5,2.4,6,3,9.1c0.9-1.6,1.7-3.3,2.1-5.2c1.4,2.3,3.2,4.3,5.4,5.8c0.7-1,1.4-1.9,2.2-2.9
	c-1.8-0.4-3.5-0.7-5.2-1.1c1-0.9,2.1-2,3.5-1.1c3,1.3,6.2,0.4,9.3,0.6c1.2,2.4,1.6,5,2.6,7.4c-5.2,0.1-10.3,0.1-15.5,0
	c0.2,1.5-1,3.9,1.2,4.4c4.8,0.3,9.6,0,14.4,0.1c0.1,2.5,0.1,4.9,0.1,7.4c-4.2-0.1-8.3-0.1-12.5,0.1c-0.1,1.3-0.1,2.6-0.1,3.9
	c4.2,0.1,8.3,0.1,12.5,0.2c0,2.6-0.1,5.2-0.3,7.8c-5.1,0-10.2,0-15.3,0.2c-0.2,1.5-0.3,3-0.5,4.5c5.2-0.3,10.6-1,15.8,0
	c0.4,2.4,0.3,4.8,0.4,7.2c-4.3,0-8.5,0-12.8,0c0,1.5,0.1,2.9,0.1,4.4c4.2,0,8.4-0.1,12.6-0.1c0,2.6,0.1,5.2,0.1,7.8
	c-4.9,0.2-9.9,0.1-14.8-0.1c0.4,1.4-0.8,4,1.4,4.4c4.2,0.7,8.5,0.2,12.8,0.4c0,2.4-0.1,4.7-0.1,7.1c-4.7,0-9.4,0.1-14,0
	c-0.1,1.4-0.1,2.7-0.2,4.1c4.8,0.2,9.6,0.2,14.4,0c0.4,2.7,0.4,5.4,0,8c-14,0.1-28-0.1-42-0.1c4.5-24.1,9.8-48,15.2-71.9
	c0.4,0.3,1.2,1,1.6,1.3C229.8,216.3,230.8,211.7,231.4,207.1z"/>
<path class="st18" d="M444.9,221.3c8.8-1.3,18.1-1,26.6,2c7.2,3.2,14.3,6.4,21.2,10c-2.8,0.6-5.4-0.7-7.9-1.8
	c-6.6,3.1-14.3-0.1-20.9,3.1c-0.9,0.7-1.5,1.6-2.2,2.4c-0.2-2.1-0.1-4.4-1.2-6.2C457,225.5,451.1,222.1,444.9,221.3z"/>
<path class="st19" d="M463.9,234.7c6.6-3.1,14.3,0,20.9-3.1c2.5,1,5.1,2.3,7.9,1.8c6.6,2.8,13.1,6,19.3,9.6v77.3
	c-0.3-0.4-0.9-1.3-1.2-1.8c-2,0.4-4.1,1.6-6,0.6c-3.4-1.8-7.3-2.1-10.9-2.9c-4.1-1.1-8.4,0.6-12.5-0.5c-2.6-1.9-5-4-8.4-4
	c-0.4-0.8-0.8-1.5-1.2-2.3c-2.4,0.1-4.7,0.7-7,1.1c-0.9-1-1.9-2.1-2.8-3.1c-0.3-1.2-0.8-2.3-1-3.4c-0.7,1.8-1.5,3.7-2.5,5.4
	c-0.5-2.6-0.2-5.3,0.8-7.8c0.7-1.5-0.8-2.8-1.2-4c4.5-19.8,5.4-40.2,3.8-60.4C462.4,236.3,463,235.3,463.9,234.7z"/>
<path class="st20" d="M256.8,267.4c-0.1-2.6,0-5.2,0.6-7.8c5.1,0.1,10.2,0,15.3,0.1c2.2,0.5,4.9,1.1,5.7,3.6
	c-2.7-0.7-5.4-1.3-8.1-1.7c0.4,0.4,1.2,1.2,1.6,1.6c7.1,2.8,15.5,3.2,21.5,8.2c-6-1.6-12.2-2.4-18.3-3.7c-1.8-0.4-3.8-0.3-5.6-0.2
	C265.2,267.7,261,267.4,256.8,267.4z"/>
<path class="st21" d="M270.2,261.6c2.7,0.4,5.4,1,8.1,1.7c5.1,1.8,10.4,3.2,15.1,6c0-0.6,0.1-1.8,0.1-2.4c0.3,1.7,0.7,3.4,1.1,5.1
	c-0.3-0.1-1-0.4-1.3-0.5c-6.1-5-14.4-5.3-21.5-8.2C271.4,262.8,270.6,262,270.2,261.6z"/>
<path class="st22" d="M269.5,267.5c1.9-0.2,3.8-0.3,5.6,0.2c6.1,1.2,12.2,2.1,18.3,3.7c0.3,0.1,1,0.4,1.3,0.5
	c1.5,6.5,2.7,13.1,4,19.6c-13-0.3-26.1,0-39.1-0.4c2.9-0.9,6-1.2,9-1.2c-0.2-0.3-0.6-1-0.8-1.3c1.3-1.9,2.7-4.1,1.5-6.4
	c-0.3-1.2-0.6-2.4-0.9-3.6c-0.3-2.3,0.1-4.5,0.6-6.7c1.5-0.1,3-0.1,4.5-0.2c-0.1-0.9-0.4-1.7-0.9-2.4c-1.2,0.1-2.2,0.7-3.2,1.1
	L269.5,267.5z"/>
<path class="st23" d="M257.3,272.1c3.9,0.2,7.8,0.1,11.7-0.2c-0.5,2.2-0.9,4.5-0.6,6.7c-3.6,1-7.3,0.7-11,0.6
	C257.3,276.8,257.3,274.5,257.3,272.1z"/>
<path class="st24" d="M269.3,282.2c1.1,2.3-0.3,4.6-1.5,6.4c0.2,0.3,0.6,1,0.8,1.3c-3,0-6.1,0.3-9,1.2c-0.5,0.1-1.4,0.2-1.9,0.2
	c-0.2-2.6-0.3-5.3-0.3-7.9c3.8-0.5,8.1,0.9,11.6-0.8L269.3,282.2z"/>
<path class="st25" d="M164.4,289.4c8.7-4.8,21.9-0.4,23.8,9.9c5.1,0.1,10.1-0.8,15.1-0.2c-0.4,2.2-0.9,4.4-1.4,6.6
	c-15.7-0.9-31.5-0.4-47.3-0.3C154.9,298.9,158,292,164.4,289.4z"/>
<path class="st26" d="M204.3,328.9c2.2-12.6,5.1-25,7.6-37.5c14,0,28,0.2,42,0.1c-0.2,14.1,0.1,28.1-0.3,42.2
	c-4.4,1.4-9.2,4.3-10,9.3c-1.5,7.1,4.3,14.1,11.4,14.8c1,12,0.7,24.1,0.9,36.2c0.2,11.5,0.2,22.9,0.1,34.4c-17.3,0-34.7-0.1-52,0
	c-6.2,0-12.4,0.5-18.5-0.1C191.5,395.1,198.1,362.1,204.3,328.9z"/>
<path class="st27" d="M257.6,291.4c0.5-0.1,1.4-0.2,1.9-0.2c13,0.4,26.1,0.1,39.1,0.4c3.2,17.8,6.7,35.6,9.8,53.4
	c4,18.2,7.3,36.6,11.2,54.9c-0.2,0.8-0.5,2.4-0.7,3.2c-4.6-2.6-7.4-7.3-11.2-10.8c-8.7-9.6-17.5-19.2-26.3-28.7
	c-4.4-5.2-9.5-9.6-13.8-14.9c1.1-6.9-4.1-12.7-10-15.3C257.8,319.3,257.8,305.3,257.6,291.4z"/>
<path class="st28" d="M457.9,297.5c0.4,1.3,1.9,2.6,1.2,4c-1,2.5-1.3,5.1-0.8,7.8c1-1.7,1.8-3.5,2.5-5.4c0.3,1.2,0.7,2.3,1,3.4
	c0.9,1.1,1.9,2.1,2.8,3.1c2.3-0.4,4.6-1,7-1.1c0.4,0.7,0.8,1.5,1.2,2.3c3.4,0,5.8,2.2,8.4,4c4.1,1.1,8.4-0.6,12.5,0.5
	c3.7,0.8,7.5,1.2,10.9,2.9c2,1,4.1-0.2,6-0.6c0.3,0.4,0.9,1.3,1.2,1.8v19.9c-8.4-9.2-21.6-11.4-33.5-10.4
	c-6.2-8.7-18.5-11.2-28.3-7.8C453.6,314.1,456,305.8,457.9,297.5z"/>
<path class="st29" d="M327.8,324.9c3.7-4.2,8.4-7.6,14.1-8.3c10.2-1.7,20.9,3.8,25.9,12.6c2,5.7,0.8,12,0.4,17.9
	c-0.8,5-1.9,9.9-2.8,14.9l-0.5-0.3c-1.7-1.1-3.4-2.3-5.1-3.4c-3-1.7-6.1-4.1-9.7-4c-3.2-0.1-6.1,1.5-8.9,2.9
	c-8.5-6.7-17.1-13.2-25.9-19.4c-0.4-1.3-0.8-2.7-1.1-4c3.4,1,6.6,2.6,9.3,4.8C323.3,333.7,324.8,328.8,327.8,324.9z"/>
<path class="st30" d="M375.6,318.6c2.1-1.8,5.1-1.4,7.5-0.4c-1.4,0.6-3.2,0.9-3.6,2.6c1.4,16,0.6,32.2,0.8,48.2
	c0,5.2,0.2,10.4-0.1,15.5c-0.6-1.5-1.3-2.9-1.3-4.5c-0.2-5.9,0.2-11.9-0.1-17.8c-1.6-1.9-3.2-3.9-4.6-6c-1.1,0.9-2.2,1.7-3.3,2.6
	c-0.8-0.6-1.5-1.2-2.2-1.9c-0.5,2-1,4-1.7,6c-0.4-0.2-1.3-0.7-1.7-0.9c1-5,2-9.9,2.8-14.9c1.1-5.6,2.6-11.3,1-17
	c0.5,0.6,1,1.2,1.5,1.8C371.9,327.4,371.4,321.6,375.6,318.6z"/>
<path class="st31" d="M313.4,318.4c0.6,0.2,1.3,0.5,1.9,0.7c0,0.8,0,1.6,0,2.4c2.6,1.1,5.4,2.1,8.3,2c0.3,1,0.5,2,0.8,3
	c0.5-0.7,1-1.4,1.6-2c0.4,0.1,1.3,0.2,1.7,0.3c-3,3.9-4.5,8.8-4.4,13.8c-2.8-2.2-6-3.8-9.3-4.8c-0.7-4.2-1.6-8.4-2.4-12.6
	C312.2,320.3,312.8,319.3,313.4,318.4z"/>
<path class="st32" d="M379.5,320.8c0.4-1.7,2.1-2,3.6-2.6c2.5,2,4,5,4.6,8.1c2.1,9.1,2.6,18.5,4.5,27.7c1.3,5.4,1.8,11.1,4,16.2
	c0.2-8.9,2.6-17.9,7.7-25.3c0.7,14.1-3.9,27.7-6.8,41.3c-0.9,5.5-5.6,8.9-8,13.6c-1.9,0.9-3.8,1.5-5.9,1.6
	c0.5-19.8-0.4-39.5-0.5-59.3c-0.2-7.3,1.4-14.8-0.5-22C381.5,320.2,380.2,320.6,379.5,320.8z"/>
<path class="st33" d="M379.5,320.8c0.7-0.2,2-0.5,2.7-0.7c2,7.2,0.3,14.6,0.5,22c0.1,19.8,1,39.5,0.5,59.3c-0.9,0.6-1.8,1.2-2.7,1.8
	c-3.2-1-6.3-2-9.3-3.5c-1.4-1.3-2.6-2.7-3.8-4.3c0-1.4,0-2.8,0-4.2c1.2,6.1,7.6,8.9,12.9,10.4c0.2-5.7,0.2-11.3-0.1-17
	c0.2-5.2,0.1-10.4,0.1-15.5C380.1,352.9,380.9,336.8,379.5,320.8z"/>
<path class="st34" d="M114.5,335.5c1-4.1,4.7-7.1,8.9-7.2c-1.2,5.8,0.4,11.8-0.4,17.7c-0.6,18,0.2,35.9-0.6,53.9
	c-3.5-1.7-7-3.5-10.1-5.8c-2-4.2-4.1-8.4-5.6-12.8c0.7-2.4,1.4-4.8,1.8-7.2c0.9-6,1.4-12.2,2.8-18.1
	C112.7,349.2,112.7,342.2,114.5,335.5z"/>
<path class="st35" d="M123.4,328.3c0.5,0.1,1.4,0.3,1.8,0.4c2,4.1,0.7,8.9,1,13.2c0.3,19.3-0.5,38.5-0.5,57.8
	c4.8,0.2,8.5-3.2,12.1-5.8c-3,3.8-7.4,5.9-12,7c-0.1,4,0.1,8,0.3,12c1.3,0,2.6-0.1,3.9-0.2c-1.4,0.3-2.8,0.7-4.2,1.1
	c0,0.2,0,0.6,0,0.8c-0.5,0-1.6,0.1-2.1,0.1l-1.2,0.1l-0.3,0.1c0.2-4.5,0.3-9,0-13.6c-3.2-2.7-8-3.6-10.1-7.4
	c3.1,2.3,6.6,4.1,10.1,5.8c0.8-18,0-36,0.6-53.9C123.8,340.1,122.2,334.2,123.4,328.3z"/>
<path class="st36" d="M125.3,328.7c6.3,1.6,7.5,8.8,8.2,14.2c1.5,11.1,3.3,22.1,6.2,32.9c0.1,1.4,1.5,1.8,2.4,2.5
	c1.1-4.8,1-9.8,2.9-14.4c0.7-1.8,2.4-2.8,4.1-3.5c1.8,4.7,1.1,9.7,1.1,14.6c0,4.6-0.2,9.3-0.4,13.9c-0.2,6.5-1.9,12.9-2.3,19.4
	c2.6-0.4,5.2-0.7,7.7-1.1c-8.4,1.7-16.6,3.8-25,5.5c-1.3,0.1-2.6,0.1-3.9,0.2c-0.2-4-0.5-8-0.3-12c4.6-1.1,9-3.2,12-7
	c-3.7,2.6-7.3,6-12.1,5.8c-0.1-19.3,0.8-38.5,0.5-57.8C126,337.6,127.3,332.8,125.3,328.7z"/>
<path class="st37" d="M478.5,329.7c11.9-1.1,25.1,1.2,33.5,10.4v10.3c-7.5-8.8-18.6-14.7-30.1-15.6c0.5-0.4,1.1-0.8,1.7-1.2
	C481.4,333,479.7,331.5,478.5,329.7z"/>
<path class="st38" d="M421.8,341.7c-0.6-2.5-0.4-5.1,0.8-7.4l0.1,1c19.7,0,39.5-1.2,59.2-0.6c11.5,1,22.6,6.9,30.1,15.6v90.8
	c-0.7-1.3-1.4-2.5-2-3.7c-0.9,2.1-1.8,4.3-2.6,6.5c-1.1-1.8-2-3.5-2.9-5.4c-2.9-0.7-6.1-1.1-7.9-3.7c-1.5,1.8-1.4,4.3-2.6,6.1
	c-5.2,3-11.8,2.7-17.1,0.2c-2.7-1.2-5.6,0.6-8.3-0.4c-0.8,0.2-1.6,0.4-2.3,0.6c-3.7-1.6-7.7-2.6-11.7-3.3c-0.4-0.6-0.8-1.2-1.3-1.8
	c-1.1,0.4-2.2,0.7-3.4,1.1c-0.7-0.6-1.4-1.3-2.1-1.9c-0.8,0-1.7-0.1-2.5-0.1c0.3-2.5,0.6-5.1,1.1-7.6c2.2-6.5,1.5-13.5,2.2-20.3
	c0.4-4.5-1.4-9.3-5.2-11.8c-2.6-2.2-6.2-1.8-9.4-1.8c-3.2-1.2-2.4-5.3-2.9-8c-1.2-10.4,1.5-21.4-2.7-31.3
	C426.7,350.1,424.2,345.9,421.8,341.7z"/>
<path class="st39" d="M250.1,349.8c-4.4-4-1-12.3,4.9-12.4c4.8-0.6,7.9,4.3,7.5,8.6c-1,2-2,4.2-4,5.3
	C255.7,351.9,252.1,352.3,250.1,349.8z"/>
<path class="st40" d="M315.1,337.8c8.8,6.2,17.5,12.7,25.9,19.4c4.7,2.8,8.1,7.1,12.1,10.7c0.5,0.4,1.3,1.1,1.8,1.5
	c-7.8,10.1-15,21.6-15.2,34.8c-4.2-0.9-8.4-1.7-12.6-2C322.7,380.9,318.2,359.4,315.1,337.8z"/>
<path class="st41" d="M403.9,344.8c1.4-2,3.6-3.1,6-3.6c-0.9,13.6-0.4,27.2-0.7,40.8c-0.5,11.9-0.5,23.8-0.4,35.8
	c-2.1-1.7-4.8-2.3-7.3-3.3c-2.7-1.1-4.5-3.4-6.3-5.6c-1.2-3.1-1.5-6.5-2.1-9.8c0.2-0.2,0.6-0.7,0.8-1c-1.6,0.5-3.2,1-4.7,1.6
	c2.4-4.7,7-8.2,8-13.6C400,372.5,404.6,358.9,403.9,344.8z"/>
<path class="st42" d="M409.9,341.2c2.3,0.2,4.2,1.4,5.5,3.4c-2.8,12.1-1.3,24.6-1.7,36.9c0,11-0.5,22,0,33c2-0.4,4-0.8,6-1.2
	c-0.7,0.6-1.4,1.2-2.1,1.8c-1.4,0.4-2.9,0.9-4.3,1.4c0.1,2.6,0.2,5.2,0.3,7.9c-1.5-0.8-3-1.5-4.5-2.1c-0.1-1.4-0.2-2.8-0.3-4.2
	c-0.1-11.9-0.1-23.8,0.4-35.8C409.5,368.5,409,354.8,409.9,341.2z"/>
<path class="st43" d="M416.9,347.5c1.7-1.9,3.3-3.8,4.9-5.8c2.4,4.2,4.9,8.4,6.5,13c4.1,9.9,1.5,20.9,2.7,31.3
	c0.5,2.7-0.4,6.8,2.9,8c0.9,1.4,1.7,3,2.5,4.5c-0.4,0.6-1.2,1.8-1.6,2.4c-1.8,2.5-4.3,4.7-7.5,3.5c-1.9-11.6-5.1-22.9-6.9-34.5
	C419,362.4,418.4,354.9,416.9,347.5z"/>
<path class="st44" d="M415.4,344.6c0.5,1,1.1,1.9,1.5,2.9c1.4,7.4,2.1,14.9,3.4,22.3c-0.2,1.9-0.4,3.7-0.7,5.6
	c-0.4,0.3-1.3,0.8-1.8,1.1c-0.6,2.3-1.9,4.2-4.2,4.9C414.1,369.2,412.6,356.6,415.4,344.6z"/>
<path class="st45" d="M262.8,354.6c1.9-1.8,3.5-3.8,4.9-6c4.2,5.3,9.4,9.8,13.8,14.9c8.9,9.5,17.6,19.1,26.3,28.7
	c3.8,3.6,6.6,8.2,11.2,10.8c0.2-0.8,0.5-2.4,0.7-3.2c1.2,5.9,2.6,11.9,3.9,17.8c-2.5-0.5-3.6-3.1-5.3-4.8
	c-9.5-9.9-18.2-20.5-27.9-30.2C281,373.4,272.5,363.4,262.8,354.6z"/>
<path class="st46" d="M341.1,357.2c2.8-1.4,5.7-3,8.9-2.9c3.6-0.1,6.7,2.3,9.7,4c-0.1,1.4-0.2,2.7-0.3,4.1c-3.1,0.5-5.2,2.6-6.2,5.6
	C349.2,364.3,345.8,360,341.1,357.2z"/>
<path class="st47" d="M255,357.8c2.9-0.1,5.6-1.2,7.8-3.2c9.7,8.8,18.2,18.8,27.6,28c9.7,9.7,18.4,20.3,27.9,30.2
	c1.7,1.7,2.8,4.3,5.3,4.8c1.1,3.6,2.2,7.1,2.4,10.9c-23-0.3-46-0.3-69-0.1l-1,0c0.1-11.5,0.1-22.9-0.1-34.4
	C255.7,382,256,369.9,255,357.8z"/>
<path class="st48" d="M374.2,356.2c1.4,2.1,3,4.1,4.6,6c0.4,5.9,0,11.9,0.1,17.8c0,1.6,0.7,3.1,1.3,4.5c0.3,5.6,0.3,11.3,0.1,17
	c-5.4-1.4-11.8-4.3-12.9-10.4c0,1.4,0,2.8,0,4.2c-1.2-2-1.7-4.3-1.9-6.6c0-0.3-0.1-0.8-0.1-1.1c3.4-5.9-0.1-13-0.6-19.3
	c-0.1-2.2,0-4.4,0-6.6l0.5,0.3c0.4,0.2,1.3,0.7,1.7,0.9c0.6-2,1.1-4,1.7-6c0.7,0.6,1.5,1.2,2.2,1.9
	C372,357.9,373.1,357.1,374.2,356.2z"/>
<path class="st49" d="M359.5,362.4c0.1-1.4,0.2-2.7,0.3-4.1c1.7,1.1,3.4,2.3,5.1,3.4c0,2.2-0.1,4.4,0,6.6c-3.3,0.3-6.6,0.7-9.8,1.1
	c-0.5-0.4-1.3-1.1-1.8-1.5C354.2,365,356.3,362.9,359.5,362.4z"/>
<path class="st50" d="M149.1,360.5c1.4,0.5,2.8,1,4.1,1.4c0.2,0.5,0.6,1.6,0.8,2.1c1.5,7.5,2.3,15.1,4.7,22.4c2.1,6.4,4,12.8,6.6,19
	c-3.4,0.7-6.7,1.4-10.1,2c-2.6,0.4-5.1,0.7-7.7,1.1c0.4-6.5,2.1-12.9,2.3-19.4c0.2-4.6,0.4-9.3,0.4-13.9
	C150.1,370.2,150.9,365.1,149.1,360.5z"/>
<path class="st51" d="M154,364c1.2,3,1.7,6.6,4.5,8.5c8.3,6.5,18,10.8,27.3,15.8c-0.9,5.1-1.8,10.1-2.8,15.2
	c-5.9,0-11.9,0.9-17.7,1.9c-2.6-6.2-4.5-12.6-6.6-19C156.3,379,155.5,371.4,154,364z"/>
<path class="st52" d="M355,369.4c3.3-0.4,6.5-0.7,9.8-1.1c0.5,6.3,4,13.4,0.6,19.3c-0.9-5.8-2.4-11.5-1.8-17.4c-1,0-2,0-3,0.1
	l-0.3,0.1c-1.4,3.1-0.6,6.4-0.7,9.7c-0.4,9.4,0.4,18.8,0.2,28.2c-6.7-1.5-13.4-2.6-20-4.1C340,391,347.2,379.5,355,369.4z"/>
<path class="st53" d="M360.5,370.3c1,0,2-0.1,3-0.1c-0.5,5.9,0.9,11.6,1.8,17.4c0,0.3,0.1,0.8,0.1,1.1c-1,0.9-1.9,1.8-2.9,2.6
	c-0.5-2.4-0.8-4.9-0.8-7.4c0.5,0.1,1.4,0.5,1.9,0.6c-0.8-4.8-0.9-9.9-3.5-14.2L360.5,370.3z"/>
<path class="st54" d="M420.3,369.8c1.8,11.6,5,23,6.9,34.5c-1.4,4.6-3.9,10.5-9.6,10.6c0.7-0.6,1.4-1.2,2.1-1.8c-2,0.4-4,0.8-6,1.2
	c-0.5-11,0-22,0-33c2.3-0.8,3.6-2.7,4.2-4.9c0.4-0.3,1.3-0.8,1.8-1.1C419.9,373.5,420.1,371.6,420.3,369.8z"/>
<path class="st55" d="M360.2,370.4c2.6,4.2,2.7,9.4,3.5,14.2c-0.5-0.1-1.4-0.5-1.9-0.6c0,2.5,0.3,5,0.8,7.4
	c0.2,5.9-0.8,11.9,0.5,17.7c-1.2-0.3-2.3-0.5-3.4-0.8c0.2-9.4-0.6-18.8-0.2-28.2C359.7,376.8,358.9,373.5,360.2,370.4z"/>
<path class="st56" d="M99.3,376.3c0.8,0,1.6,0.1,2.4,0.1c0.5,12.4,0.4,24.9,0.6,37.3c2.9-1,5.9-1.7,8.9-2.2
	c-2.9,1.2-5.7,2.4-8.7,3.3c-0.3,2.6-0.4,5.1-0.4,7.7c-1.1,0.4-2.2,0.7-3.4,1.1c-0.6-2.5-0.3-5-0.4-7.6l-1.1-0.3
	c0.3-0.4,0.9-1.2,1.3-1.6c0-5.8,1-11.5,0.4-17.2C98.4,390.1,99,383.2,99.3,376.3z"/>
<path class="st57" d="M93.7,384.9c0.7-3.4,1.9-7.4,5.6-8.6c-0.3,6.9-0.9,13.8-0.3,20.7c0.6,5.7-0.4,11.5-0.4,17.2
	c-0.3,0.4-0.9,1.2-1.3,1.6c-2.3-0.6-4.4-1.5-6.4-2.8c-1.8-1.9-3.1-4.4-2-7C91.1,399.1,92.4,392,93.7,384.9z"/>
<path class="st58" d="M101.7,376.4c1.8,1.5,3.4,3.1,5,4.9c1.5,4.4,3.5,8.6,5.6,12.8c2,3.8,6.9,4.7,10.1,7.4
	c-5.1,1.9-5.4,9.2-11.1,10.1c-3,0.4-6,1.2-8.9,2.2C102.1,401.3,102.2,388.9,101.7,376.4z"/>
<path class="st59" d="M365.5,388.7c0.2,2.3,0.8,4.6,1.9,6.6c1.1,1.5,2.4,2.9,3.8,4.3c0.7,3.7,1.3,7.4,2,11c-3.3-0.7-6.7-0.9-10-1.5
	c-1.4-5.8-0.4-11.8-0.5-17.7C363.6,390.5,364.6,389.6,365.5,388.7z"/>
<path class="st60" d="M433.9,394c3.2-0.1,6.8-0.5,9.4,1.8c3.8,2.6,5.7,7.3,5.2,11.8c-0.7,6.8,0,13.7-2.2,20.3l0-0.7
	c0.1-7.7-3.5-15.2-8.8-20.6c0.1-2.7,0.1-5.6-1.2-8C435.6,397,434.8,395.5,433.9,394z"/>
<path class="st61" d="M389.2,399.8c1.5-0.6,3.1-1.1,4.7-1.6c-0.2,0.2-0.6,0.7-0.8,1c-2.6,2-5.9,2.7-8.9,4.1
	c-1.3,3.3-0.4,7.1-0.5,10.6c-1.1-0.3-2.1-0.6-3.2-0.9c0-3.3,0-6.5,0-9.8c0.9-0.6,1.8-1.2,2.7-1.8
	C385.3,401.3,387.3,400.6,389.2,399.8z"/>
<path class="st62" d="M434.8,400.9c0.4-0.6,1.2-1.8,1.6-2.4c1.4,2.5,1.3,5.3,1.2,8c-0.3,7.7-0.1,15.5-0.1,23.2
	c2.9-1,5.9-1.8,8.9-2.6l0,0.7c-0.3,0.2-1.1,0.6-1.4,0.9c-2.5,1-4.9,2-7.4,3.1c0,1.3,0,2.6-0.1,4c-0.9-0.4-1.8-0.8-2.7-1.2
	C435.5,423.3,434,412.1,434.8,400.9z"/>
<path class="st63" d="M371.2,399.6c3,1.5,6.1,2.5,9.3,3.5c0,3.3,0,6.5,0,9.8c-2.4-0.7-4.8-1.6-7.3-2.3
	C372.5,407,371.9,403.3,371.2,399.6z"/>
<path class="st64" d="M384.2,403.2c3-1.4,6.2-2,8.9-4.1c0.6,3.3,0.9,6.6,2.1,9.8c-1.1,2.5-2.2,4.9-3.2,7.4c-2.7-1-5.5-1.9-8.3-2.6
	C383.8,410.3,382.9,406.5,384.2,403.2z"/>
<path class="st65" d="M427.2,404.3c3.3,1.3,5.7-1,7.5-3.5c-0.8,11.2,0.7,22.5-0.1,33.7c-6.9-3.3-13.7-6.8-20.6-10.2l-0.5-0.2
	c-0.1-2.6-0.2-5.2-0.3-7.9c1.4-0.5,2.9-0.9,4.3-1.4C423.3,414.9,425.9,409,427.2,404.3z"/>
<path class="st66" d="M111.3,411.6c5.6-1,5.9-8.2,11.1-10.1c0.2,4.5,0.2,9,0,13.6c-0.6,0.2-1.8,0.6-2.5,0.8c-6,2.1-12,4-17.7,6.9
	c0-2.6,0.2-5.2,0.4-7.7C105.6,414,108.4,412.8,111.3,411.6z"/>
<path class="st67" d="M327.1,402.2c4.2,0.3,8.4,1.1,12.6,2c6.6,1.5,13.4,2.6,20,4.1c1.1,0.3,2.3,0.5,3.4,0.8c3.3,0.6,6.7,0.9,10,1.5
	c2.5,0.6,4.9,1.5,7.3,2.3c1.1,0.3,2.1,0.6,3.2,0.9c2.8,0.7,5.6,1.5,8.3,2.6c5.7,1.9,11.2,4.5,17.1,5.7c-0.2,2.3-0.4,4.6-0.1,6.9
	c2.2,1.1,4.6,1.9,6.9,2.9c-2.1-1.6-4-3.6-3.7-6.5c0.5-0.2,1.5-0.7,2-1c6.9,3.4,13.7,6.9,20.6,10.2c0.9,0.4,1.8,0.8,2.7,1.2
	c1.8,0.7,3.7,1.3,5.4,2.2c2.2,1.5,4.5,3.1,6.9,4.3c14.6,7.8,28,17.6,40.8,28.2c7.2,6.4,15.1,12.1,21.4,19.4V512H287.4
	c-22.3-17.3-44.6-34.7-68.4-49.8c-7.6-5.1-15.7-9.1-23.2-14.2c0.3-0.5,1-1.6,1.3-2.1c4.7,0,9.4,0.2,14.1-0.3c2.7-2,2.6-6.1,3.6-9.1
	c26.8,0.3,53.6,0.2,80.5,0.2c1.1,3,2.3,6,3.6,8.9c5.2,0.1,10.4-0.1,15.5,0.3c0.6-2.8,0.6-5.7,0.3-8.5c1.3-0.1,2.6-0.1,3.9-0.2
	c4.4,0,8.9,0.5,13.2-0.5c2.8-2.1,2.1-6.1,1.5-9.1C331,419.1,329.1,410.7,327.1,402.2z"/>
<path class="st68" d="M165.3,405.3c5.8-1,11.8-1.9,17.7-1.9c-1.4,8.1-2.6,16.2-4.6,24.1c-0.6,3.1-2.1,6.9,0.7,9.4
	c0.1,0.1,0.4,0.4,0.6,0.6c4.8,4.2,10.8,6.7,16.1,10.4c7.5,5.1,15.7,9.2,23.2,14.2c23.9,15.1,46.1,32.5,68.4,49.8H0v-21.6
	c8.7-8.3,17.5-16.4,26.9-23.8c17.1-13.7,35.8-25,55-35.5c5.6-2.3,11-5.7,17-6.7c0.6,2.3,0.7,4.8,0.7,7.2l-0.1,0.5
	c3.3,1.1,6.7,0.2,10-0.7c-0.9-1.2-1.8-2.5-3.4-2.8c-1.2-0.4-2.4-0.9-3.6-1.2c-0.1-1.5-0.2-3-0.3-4.5c5.7-2.9,11.7-4.7,17.7-6.9
	c0.5-0.1,1.6-0.2,2.2-0.3c0.1,3.2,0.1,6.4,0.1,9.6c2.2,0.2,4.3,0.4,6.5,0.6c-1.8-2.1-2.4-4.8-2-7.5c1.8,0.7,3.7,1.3,5.6,1.8
	c-1.8-2.3-4.3-3.9-6.2-6.1c1.4-0.4,2.8-0.8,4.2-1.1c8.4-1.7,16.6-3.8,25-5.5C158.6,406.7,161.9,406,165.3,405.3z"/>
<path class="st69" d="M437.6,406.6c5.2,5.4,8.9,13,8.8,20.6c-3,0.8-5.9,1.6-8.9,2.6C437.5,422,437.3,414.3,437.6,406.6z"/>
<path class="st70" d="M395.2,408.9c1.8,2.1,3.7,4.5,6.3,5.6c2.5,1,5.1,1.7,7.3,3.3c0.1,1.4,0.2,2.8,0.3,4.2
	c-5.9-1.2-11.4-3.7-17.1-5.7C393,413.9,394.1,411.4,395.2,408.9z"/>
<path class="st71" d="M91,413c1.9,1.3,4.1,2.2,6.4,2.8l1.1,0.3c0.1,2.5-0.2,5.1,0.4,7.6l0.1,0.6c-6.1,1-11.4,4.4-17,6.7
	c0.4-1.8,1.1-3.5,2.7-4.5c1.9-1.3,2.5-3.9,5-4.3c0.2-1.9,0.6-3.7,1.2-5.5c-0.4-0.9-0.8-1.7-1.1-2.6C89.9,413.9,90.6,413.3,91,413z"
	/>
<path class="st72" d="M126,414.7c0-0.2,0-0.6,0-0.8c1.9,2.2,4.4,3.8,6.2,6.1c-1.9-0.5-3.8-1.1-5.6-1.8c-0.4,2.7,0.2,5.4,2,7.5
	c-2.2-0.2-4.4-0.4-6.5-0.6c0-3.2,0-6.4-0.1-9.6c-0.5,0.1-1.6,0.2-2.2,0.3c0.6-0.2,1.8-0.6,2.5-0.8l0.3-0.1c-0.1,3.2-0.1,6.4,0,9.5
	l1.7,0.1c-0.1-1.6-0.1-3.2-0.2-4.8c0.3,1.9,0.3,4.1,2,5.4C126.1,421.7,126,418.2,126,414.7z"/>
<path class="st73" d="M122.7,415l1.2-0.1c0.1,1.6,0.1,3.3,0.2,4.9c0.1,1.6,0.1,3.2,0.2,4.8l-1.7-0.1
	C122.6,421.3,122.6,418.1,122.7,415z"/>
<path class="st74" d="M123.9,414.9c0.5,0,1.6-0.1,2.1-0.1c0,3.5,0.1,7,0.1,10.4c-1.7-1.3-1.7-3.5-2-5.4
	C124,418.1,124,416.5,123.9,414.9z"/>
<path class="st75" d="M181.4,422.3c1,2.2,2.2,4.4,4,6c6.2,0.6,12.4,0,18.5,0.1c17.3,0,34.7,0.1,52,0l1,0c-0.1,2.1-0.1,4.2-0.1,6.3
	c-2.6,0.4-5.2,0.7-7.8,0.9c-17.8,0.4-35.7-0.5-53.5,1c-5.3,0.3-10.6,0.2-15.8,1c-0.2-0.1-0.4-0.4-0.6-0.6
	C178.9,432,180.1,427.1,181.4,422.3z"/>
<path class="st76" d="M409.1,422c1.5,0.7,3,1.4,4.5,2.1l0.5,0.2c-0.5,0.2-1.5,0.7-2,1c-0.4,2.9,1.6,4.9,3.7,6.5
	c-2.3-1-4.6-1.8-6.9-2.9C408.7,426.6,409,424.3,409.1,422z"/>
<path class="st77" d="M98.8,423.7c1.1-0.4,2.2-0.7,3.4-1.1c0.1,1.5,0.2,3,0.3,4.5c1.2,0.4,2.4,0.8,3.6,1.2c-1.4-0.5-2.9-0.9-4.4-1.3
	c-0.8,1.4-1.5,2.9-2.1,4.4c0.1-2.4-0.1-4.8-0.7-7.2L98.8,423.7z"/>
<path class="st78" d="M99.6,431.5c0.7-1.5,1.3-3,2.1-4.4c1.5,0.4,2.9,0.8,4.4,1.3c1.6,0.3,2.5,1.6,3.4,2.8c-3.2,0.9-6.6,1.8-10,0.7
	L99.6,431.5z"/>
<path class="st79" d="M444.9,428.8c0.4-0.2,1.1-0.6,1.4-0.9c-0.4,2.5-0.7,5.1-1.1,7.6c0.8,0,1.7,0.1,2.5,0.1
	c0.7,0.6,1.4,1.2,2.1,1.9c1.1-0.4,2.2-0.8,3.4-1.1c0.4,0.6,0.8,1.2,1.3,1.8c4,0.6,8,1.6,11.7,3.3c0.8-0.2,1.5-0.4,2.3-0.6
	c2.7,1,5.6-0.9,8.3,0.4c5.3,2.4,12,2.8,17.1-0.2c1.2-1.8,1.1-4.3,2.6-6.1c1.8,2.6,5.1,3.1,7.9,3.7c0.9,1.8,1.8,3.6,2.9,5.4
	c0.8-2.2,1.7-4.4,2.6-6.5c0.7,1.2,1.4,2.5,2,3.7v48.6c-6.3-7.3-14.2-13-21.4-19.4c-12.8-10.5-26.1-20.4-40.8-28.2
	c-2.4-1.2-4.7-2.8-6.9-4.3C443.8,435,444.3,431.9,444.9,428.8z"/>
<path class="st80" d="M437.5,431.8c2.5-1,4.9-2,7.4-3.1c-0.6,3.1-1.1,6.2-2,9.3c-1.7-0.9-3.6-1.5-5.4-2.2
	C437.5,434.5,437.5,433.1,437.5,431.8z"/>
<path class="st4" d="M295.1,436.7c5.9-0.8,11.9-0.2,17.8-0.5c1.9-0.2,3.8,0.2,5.6,1c-1.3,0.1-2.6,0.1-3.9,0.2
	c0.3,2.9,0.3,5.7-0.3,8.5c-5.2-0.4-10.3-0.2-15.5-0.3C297.5,442.6,296.2,439.7,295.1,436.7z"/>
<path class="st81" d="M179.7,437.5c5.3-0.7,10.6-0.7,15.8-1c0.7,3,1.2,6.1,1.5,9.2c-0.3,0.5-1,1.6-1.3,2.1
	C190.5,444.2,184.5,441.7,179.7,437.5z"/>
<path class="st82" d="M12.7,473.4c5.1-1.6,8.7-6.8,14.2-6.9C17.5,474,8.7,482.1,0,490.4v-12.7c1.1-0.5,2.2-1,3.2-1.4
	c0.9,0.5,1.8,1,2.7,1.5c0.3-1,0.6-2,0.9-2.9c0.7,1,1.4,2,2.1,2.9c0.8-1.9,1.5-3.9,1.9-5.9C11.4,472.4,12.1,472.9,12.7,473.4z"/>
</svg>
